# xmcd
#
# Track frame offsets:
#	150
#	20742
#	42626
#	63728
#	84669
#	106775
#	128241
#	144038
#	162504
#	184017
#	206125
#	228205
#	245387
#	267115
#
# Disc length: 3853 seconds
#
# Revision: 2
# Processed by: cddbd v1.5.2PL0 Copyright (c) Steve Scherf et al.
# Submitted via: EasyCDDAExtractor 15.3.0.1
#
DISCID=c30f0b0e
DTITLE=Rey Ruiz - Mi Historia Musical
DYEAR=2005
DGENRE=Latin
TTITLE0=Creo En El Amor
TTITLE1=No Me Acostumbro
TTITLE2=Amiga
TTITLE3=Enamorado
TTITLE4=Mi Media Mitad
TTITLE5=Luna Negra
TTITLE6=Piano
TTITLE7=Vereda Tropical
TTITLE8=Aqui Estoy Yo
TTITLE9=Ella
TTITLE10=Estamos Solos
TTITLE11=Mintiendo
TTITLE12=Si Te Preguntan
TTITLE13=El Rey Del Mundo
EXTD=YEAR: 2005
EXTT0=
EXTT1=
EXTT2=
EXTT3=
EXTT4=
EXTT5=
EXTT6=
EXTT7=
EXTT8=
EXTT9=
EXTT10=
EXTT11=
EXTT12=
EXTT13=
PLAYORDER=
